<svg version="1.1" id="Layer_1" xmlns="http://www.w3.org/2000/svg" xmlns:xlink="http://www.w3.org/1999/xlink" x="0px" y="0px" viewBox="0 0 41.1 35" style="enable-background:new 0 0 41.1 35;" xml:space="preserve"> <path d="M34,0.5H10H9.8h-8c-1.2,0-1.8,1.4-0.9,2.3l5.7,5.7V28c0,3.6,2.9,6.5,6.5,6.5h21c3.6,0,6.5-2.9,6.5-6.5V7 C40.6,3.4,37.6,0.5,34,0.5z M29.6,27.1H13.7c-0.8,0-1.5-0.7-1.5-1.5c0-0.8,0.7-1.5,1.5-1.5h15.9c0.8,0,1.5,0.7,1.5,1.5 C31.1,26.4,30.4,27.1,29.6,27.1z M33.4,19.1H13.7c-0.8,0-1.5-0.7-1.5-1.5c0-0.8,0.7-1.5,1.5-1.5h19.6c0.8,0,1.5,0.7,1.5,1.5 C34.9,18.4,34.2,19.1,33.4,19.1z M33.4,11H13.7c-0.8,0-1.5-0.7-1.5-1.5c0-0.8,0.7-1.5,1.5-1.5h19.6c0.8,0,1.5,0.7,1.5,1.5 C34.9,10.3,34.2,11,33.4,11z"/> </svg>
